<svg xmlns="http://www.w3.org/2000/svg" viewBox="0 0 240 278">
<g fill="green" fill-rule="evenodd"><path d="M 108 21 L 107 22 L 101 22 L 100 23 L 98 23 L 97 24 L 94 24 L 93 25 L 91 25 L 90 26 L 88 26 L 87 27 L 86 27 L 85 28 L 84 28 L 83 29 L 82 29 L 81 30 L 80 30 L 79 31 L 78 31 L 77 32 L 76 32 L 74 34 L 73 34 L 71 36 L 70 36 L 67 39 L 66 39 L 52 53 L 52 54 L 50 56 L 50 57 L 47 60 L 47 61 L 46 62 L 46 63 L 45 64 L 45 65 L 44 66 L 44 67 L 43 68 L 43 69 L 42 70 L 42 71 L 41 72 L 41 74 L 40 75 L 40 77 L 39 78 L 39 79 L 38 80 L 38 83 L 37 84 L 37 87 L 36 88 L 36 94 L 35 95 L 35 117 L 36 118 L 36 124 L 37 125 L 37 128 L 38 129 L 38 132 L 39 133 L 39 135 L 40 136 L 40 138 L 41 139 L 41 141 L 42 142 L 42 144 L 43 145 L 43 146 L 44 147 L 44 148 L 45 149 L 45 150 L 46 151 L 46 153 L 47 154 L 47 155 L 48 156 L 48 157 L 49 158 L 49 159 L 50 160 L 50 161 L 51 162 L 51 163 L 52 164 L 52 165 L 54 167 L 54 168 L 55 169 L 55 170 L 56 171 L 56 172 L 57 173 L 57 174 L 59 176 L 59 177 L 60 178 L 60 179 L 62 181 L 62 182 L 64 184 L 64 185 L 66 187 L 66 188 L 69 191 L 69 192 L 72 195 L 72 196 L 75 199 L 75 200 L 79 204 L 79 205 L 85 211 L 85 212 L 95 222 L 95 223 L 108 236 L 109 236 L 119 246 L 120 246 L 125 251 L 126 251 L 129 254 L 130 254 L 132 256 L 133 256 L 135 258 L 137 258 L 138 259 L 143 259 L 144 258 L 145 258 L 146 257 L 147 257 L 149 255 L 150 255 L 152 253 L 153 253 L 157 249 L 158 249 L 163 244 L 164 244 L 172 236 L 173 236 L 183 226 L 184 226 L 187 223 L 189 225 L 189 226 L 190 227 L 190 228 L 191 229 L 191 230 L 192 231 L 192 232 L 193 233 L 193 234 L 194 235 L 194 237 L 196 239 L 198 239 L 198 237 L 199 236 L 199 233 L 200 232 L 200 230 L 201 229 L 201 226 L 202 225 L 202 223 L 203 222 L 203 220 L 204 219 L 204 217 L 205 216 L 205 214 L 206 213 L 206 211 L 207 210 L 207 207 L 208 206 L 208 204 L 209 203 L 209 200 L 210 199 L 210 198 L 211 197 L 211 194 L 212 193 L 212 191 L 213 190 L 213 188 L 214 187 L 214 185 L 215 184 L 215 181 L 216 180 L 216 179 L 217 178 L 217 177 L 216 176 L 213 176 L 212 177 L 211 177 L 210 178 L 208 178 L 207 179 L 206 179 L 205 180 L 202 180 L 201 181 L 200 181 L 199 182 L 197 182 L 196 183 L 194 183 L 193 184 L 191 184 L 190 185 L 189 185 L 188 186 L 186 186 L 185 187 L 183 187 L 182 188 L 180 188 L 179 189 L 178 189 L 177 190 L 175 190 L 174 191 L 172 191 L 171 192 L 169 192 L 168 193 L 166 193 L 165 194 L 163 194 L 162 195 L 160 195 L 159 196 L 157 196 L 156 197 L 156 198 L 157 198 L 161 202 L 162 202 L 165 205 L 166 205 L 167 206 L 168 206 L 169 207 L 169 208 L 170 209 L 166 213 L 166 214 L 159 221 L 158 221 L 153 226 L 152 226 L 150 228 L 149 228 L 148 229 L 147 229 L 146 230 L 141 230 L 140 229 L 139 229 L 138 228 L 137 228 L 135 226 L 134 226 L 127 219 L 127 218 L 124 215 L 124 214 L 122 212 L 122 211 L 121 210 L 121 209 L 119 207 L 119 205 L 118 204 L 118 203 L 117 202 L 117 201 L 116 200 L 116 199 L 115 198 L 115 194 L 116 193 L 128 193 L 129 192 L 134 192 L 135 191 L 140 191 L 141 190 L 143 190 L 144 189 L 147 189 L 148 188 L 149 188 L 150 187 L 152 187 L 153 186 L 154 186 L 155 185 L 156 185 L 157 184 L 158 184 L 159 183 L 160 183 L 162 181 L 163 181 L 165 179 L 166 179 L 169 176 L 170 176 L 175 171 L 176 171 L 179 168 L 179 167 L 185 161 L 185 160 L 188 157 L 188 156 L 190 154 L 190 153 L 192 151 L 192 150 L 193 149 L 193 148 L 195 146 L 195 144 L 196 143 L 196 142 L 197 141 L 197 140 L 198 139 L 198 138 L 199 137 L 199 135 L 200 134 L 200 133 L 201 132 L 201 129 L 202 128 L 202 125 L 203 124 L 203 119 L 204 118 L 204 110 L 205 109 L 205 104 L 204 103 L 204 94 L 203 93 L 203 88 L 202 87 L 202 84 L 201 83 L 201 80 L 200 79 L 200 77 L 199 76 L 199 74 L 198 73 L 198 72 L 197 71 L 197 70 L 196 69 L 196 68 L 195 67 L 195 66 L 194 65 L 194 64 L 193 63 L 193 62 L 191 60 L 191 59 L 189 57 L 189 56 L 186 53 L 186 52 L 175 41 L 174 41 L 170 37 L 169 37 L 167 35 L 166 35 L 164 33 L 163 33 L 162 32 L 161 32 L 160 31 L 159 31 L 158 30 L 157 30 L 156 29 L 155 29 L 154 28 L 153 28 L 152 27 L 150 27 L 149 26 L 147 26 L 146 25 L 145 25 L 144 24 L 141 24 L 140 23 L 137 23 L 136 22 L 130 22 L 129 21 ZM 114 63 L 115 62 L 124 62 L 125 63 L 129 63 L 130 64 L 133 64 L 134 65 L 135 65 L 136 66 L 138 66 L 140 68 L 141 68 L 142 69 L 143 69 L 145 71 L 146 71 L 153 78 L 153 79 L 156 82 L 156 83 L 157 84 L 157 85 L 158 86 L 158 87 L 159 88 L 159 89 L 160 90 L 160 92 L 161 93 L 161 95 L 162 96 L 162 99 L 163 100 L 163 110 L 162 111 L 162 115 L 161 116 L 161 119 L 160 120 L 160 122 L 159 123 L 159 124 L 158 125 L 158 126 L 157 127 L 157 128 L 155 130 L 155 131 L 153 133 L 153 134 L 145 142 L 144 142 L 141 145 L 140 145 L 139 146 L 138 146 L 137 147 L 135 147 L 134 148 L 133 148 L 132 149 L 129 149 L 128 150 L 121 150 L 120 151 L 119 151 L 118 150 L 111 150 L 110 149 L 107 149 L 106 148 L 104 148 L 103 147 L 102 147 L 101 146 L 100 146 L 99 145 L 98 145 L 96 143 L 95 143 L 92 140 L 91 140 L 87 136 L 87 135 L 84 132 L 84 131 L 82 129 L 82 128 L 81 127 L 81 126 L 80 125 L 80 124 L 79 123 L 79 121 L 78 120 L 78 118 L 77 117 L 77 114 L 76 113 L 76 98 L 77 97 L 77 95 L 78 94 L 78 91 L 79 90 L 79 89 L 80 88 L 80 87 L 81 86 L 81 85 L 82 84 L 82 83 L 84 81 L 84 80 L 94 70 L 95 70 L 97 68 L 98 68 L 99 67 L 100 67 L 101 66 L 102 66 L 103 65 L 105 65 L 106 64 L 109 64 L 110 63 Z"/>
</g>
</svg>